<?xml version="1.0" encoding="UTF-8" standalone="no"?>
<svg
   viewBox="0 0 252.43067 98.823676"
   width="504.86157"
   height="197.64745"
   version="1.1"
   id="svg12"
   sodipodi:docname="logo.svg"
   xml:space="preserve"
   inkscape:version="1.4.3 (0d15f75042, 2025-12-25)"
   xmlns:inkscape="http://www.inkscape.org/namespaces/inkscape"
   xmlns:sodipodi="http://sodipodi.sourceforge.net/DTD/sodipodi-0.dtd"
   xmlns="http://www.w3.org/2000/svg"
   xmlns:svg="http://www.w3.org/2000/svg"><sodipodi:namedview
     id="namedview12"
     pagecolor="#ffffff"
     bordercolor="#000000"
     borderopacity="0.25"
     inkscape:showpageshadow="2"
     inkscape:pageopacity="0.0"
     inkscape:pagecheckerboard="0"
     inkscape:deskcolor="#d1d1d1"
     showgrid="false"
     inkscape:zoom="7.195"
     inkscape:cx="128.49201"
     inkscape:cy="53.578874"
     inkscape:window-width="3840"
     inkscape:window-height="2083"
     inkscape:window-x="0"
     inkscape:window-y="0"
     inkscape:window-maximized="1"
     inkscape:current-layer="g14" /><defs
     id="defs1"><style
       id="style1">
      .math { font-family: 'Times New Roman', 'Latin Modern Math', serif; }
    </style></defs><!-- Side profile head silhouette --><!-- Open mouth (cut out) --><!-- Sound wave arcs from mouth --><!-- Linear relation: u = w · Δ + v --><!-- SpeakUp text --><g
     id="g13"
     transform="translate(-58.931034,-23.850906)"><g
       id="g14"
       transform="translate(0,-7.6927186)"><path
         d="m 150.12209,58.34141 v 7.622808 q 0,1.114263 0.20827,1.395432 0.20828,0.270756 0.84351,0.343651 v 0.374893 h -3.96761 v -1.301709 q -0.69772,0.833093 -1.39543,1.218399 -0.69772,0.374892 -1.56205,0.374892 -0.82268,0 -1.46833,-0.499856 -0.63523,-0.51027 -0.85392,-1.187158 -0.21869,-0.676889 -0.21869,-2.363904 v -3.863472 q 0,-1.103849 -0.20827,-1.374605 -0.19786,-0.270755 -0.84351,-0.354065 V 58.34141 h 3.96761 v 6.654337 q 0,1.041367 0.0937,1.343363 0.10414,0.301997 0.31241,0.458202 0.21869,0.156205 0.49986,0.156205 0.37489,0 0.67689,-0.19786 0.41655,-0.270755 0.99971,-1.093435 v -5.206836 q 0,-1.103849 -0.20827,-1.374605 -0.19786,-0.270755 -0.84351,-0.354065 V 58.34141 Z"
         id="text5"
         style="font-weight:bold;font-size:21.3272px;font-family:'Times New Roman', 'Latin Modern Math', serif;fill:#2c3e50;stroke-width:0.761686"
         class="math"
         aria-label="u" /><path
         id="line5"
         style="stroke:#2c3e50;stroke-width:1.52337"
         d="m 140,51.321102 h 11.42529" /><path
         d="m 160.61999,58.992806 v -1.258304 h 9.14937 v 1.258304 z m 0,4.201459 V 61.93596 h 9.14937 v 1.258305 z"
         id="text6"
         style="font-size:21.3272px;font-family:serif;fill:#2c3e50;stroke-width:0.761686"
         aria-label="=" /><path
         d="m 188.45632,68.369776 -2.6659,-7.143778 -2.61383,7.143778 h -0.54151 l -2.593,-7.060469 q -0.58317,-1.614119 -0.9893,-2.103562 -0.26035,-0.333237 -0.79144,-0.479029 V 58.34141 h 4.91525 v 0.385306 q -0.49986,0 -0.6873,0.145792 -0.18745,0.145791 -0.18745,0.333237 0,0.177033 0.33324,1.062195 l 1.42667,3.80099 1.37461,-3.80099 -0.10414,-0.249928 q -0.31241,-0.781026 -0.55192,-0.989299 -0.2291,-0.218687 -0.71855,-0.301997 V 58.34141 h 4.98815 v 0.385306 q -0.58316,0.03124 -0.73937,0.166619 -0.1562,0.124964 -0.1562,0.364479 0,0.2291 0.30199,1.010126 l 1.37461,3.80099 1.24964,-3.498994 q 0.27075,-0.749784 0.27075,-1.02054 0,-0.406133 -0.19786,-0.593579 -0.19786,-0.187446 -0.77061,-0.229101 V 58.34141 h 2.88459 v 0.385306 q -0.47903,0.06248 -0.7602,0.343652 -0.28117,0.270755 -0.72896,1.56205 l -2.72838,7.737358 z"
         id="text7"
         style="font-weight:bold;font-size:21.3272px;font-family:'Times New Roman', 'Latin Modern Math', serif;fill:#2c3e50;stroke-width:0.761686"
         class="math"
         aria-label="w" /><path
         id="line7"
         style="stroke:#2c3e50;stroke-width:1.52337"
         d="m 178.0843,51.321102 h 14.47204" /><path
         d="m 199.03068,61.93596 q -0.55451,0 -0.95973,-0.319908 -0.38389,-0.319908 -0.38389,-1.130342 0,-0.83176 0.38389,-1.130341 0.40522,-0.319908 0.95973,-0.319908 0.5545,0 0.93839,0.319908 0.40522,0.298581 0.40522,1.130341 0,0.810434 -0.40522,1.130342 -0.38389,0.319908 -0.93839,0.319908 z"
         id="text8"
         style="font-size:21.3272px;font-family:serif;fill:#2c3e50;stroke-width:0.761686"
         aria-label="·" /><path
         d="m 212.80648,53.665672 h 0.28117 l 6.02951,14.412522 h -12.3402 z m 2.56176,13.662737 -3.70726,-8.903689 -3.73851,8.903689 z"
         id="text9"
         style="font-weight:bold;font-size:21.3272px;font-family:'Times New Roman', 'Latin Modern Math', serif;fill:#2c3e50;stroke-width:0.761686"
         class="math"
         aria-label="Δ" /><path
         d="m 232.14269,65.028404 v -3.945532 h -3.92421 v -1.258305 h 3.92421 v -3.945532 h 1.27963 v 3.945532 h 3.94553 v 1.258305 h -3.94553 v 3.945532 z"
         id="text10"
         style="font-size:21.3272px;font-family:serif;fill:#2c3e50;stroke-width:0.761686"
         aria-label="+" /><path
         d="m 251.74918,68.369776 -3.28031,-7.549912 q -0.59358,-1.364191 -0.92682,-1.728669 -0.23951,-0.270756 -0.70813,-0.364479 V 58.34141 h 5.1756 v 0.385306 q -0.48945,0 -0.66648,0.177033 -0.24993,0.229101 -0.24993,0.541511 0,0.385306 0.45821,1.4475 l 1.6037,3.655199 1.28088,-3.155343 q 0.55193,-1.353777 0.55193,-1.916115 0,-0.322824 -0.23952,-0.520684 -0.2291,-0.208273 -0.82268,-0.229101 V 58.34141 h 3.18659 v 0.385306 q -0.45821,0.06248 -0.74979,0.343652 -0.29158,0.281169 -0.87475,1.655773 l -3.24906,7.643635 z"
         id="text11"
         style="font-weight:bold;font-size:21.3272px;font-family:'Times New Roman', 'Latin Modern Math', serif;fill:#2c3e50;stroke-width:0.761686"
         class="math"
         aria-label="v" /><path
         id="line11"
         style="stroke:#2c3e50;stroke-width:1.52337"
         d="m 246.63606,51.321102 h 11.42528" /><text
         x="135.83044"
         y="103.05073"
         font-family="'Helvetica Neue', Arial, sans-serif"
         font-size="40px"
         font-weight="700"
         fill="#2c3e50"
         letter-spacing="1"
         id="text12">SpeakUp</text></g><g
       inkscape:groupmode="layer"
       id="layer1"
       inkscape:label="silhoutte"><g
         style="fill:#000000;stroke:#2c3e50;stroke-width:0.999982;stroke-dasharray:none;stroke-opacity:1"
         id="g12"
         transform="matrix(3.7958826,-1.3165313,1.3165313,3.7958826,-1.3558709,34.2099)"><g
           id="g1"
           transform="matrix(0.88809147,-0.04767693,0.04767693,0.88809147,2.5577301,3.3657977)"
           style="stroke:#2c3e50;stroke-width:1.12437;stroke-dasharray:none;stroke-opacity:1">
	<path
   d="m 13.679067,29.229493 3.89253,-3.70287 c 0,0 1.0789,0.615238 3.570203,1.158403 2.619,0.222 1.9142,-3.058026 1.9142,-3.058026 0,0 1.651144,-1.156 1.160046,-1.456997 -0.452186,-0.277147 -1.888282,-1.680728 -1.888282,-1.680728 0,0 1.628063,-0.05353 2.412962,0.01469 0.399,-0.467 -0.304464,-2.141431 -0.304464,-2.141431 0,0 1.44091,-0.159313 2.528738,-0.747532 C 27.77,16.728 24.238627,13.819801 24.705457,11.522801 25.070845,4.6058517 20.60485,1.5422873 13.485994,1.732626"
   id="path1"
   sodipodi:nodetypes="ccccscccccc"
   style="fill:none;stroke:#2c3e50;stroke-width:1.12437;stroke-dasharray:none;stroke-opacity:1" />
</g></g></g></g></svg>
